<svg xmlns="http://www.w3.org/2000/svg" xmlns:xlink="http://www.w3.org/1999/xlink" xml:space="preserve" id="SVGRoot" version="1.1" viewBox="0 0 900 900"><defs id="defs2"><linearGradient id="linearGradient77"><stop id="stop77" offset="0" style="stop-color:#d69abc;stop-opacity:1"/><stop id="stop78" offset="1" style="stop-color:#acadb1;stop-opacity:1"/></linearGradient><linearGradient id="linearGradient75"><stop id="stop75" offset=".3" style="stop-color:#d69abc;stop-opacity:1"/><stop id="stop76" offset=".5" style="stop-color:#d69abc;stop-opacity:0"/></linearGradient><linearGradient xlink:href="#linearGradient75" id="linearGradient76" x1="448.5" x2="448.5" y1="143.8" y2="761.5" gradientUnits="userSpaceOnUse"/><linearGradient xlink:href="#linearGradient77" id="linearGradient78" x1="677.2" x2="677.2" y1="386.9" y2="458.8" gradientUnits="userSpaceOnUse"/></defs><g id="g44"><path id="path74" d="M230 893c-17-9-23-21-23-45v-20l10-16c5-8 9-17 9-20s-13-19-28-36l-29-31-18-38-19-37-7-33-7-33v-65l10-40 9-39 14-29c20-42 56-87 122-152l59-59 19-28c10-15 32-54 48-85 15-32 33-62 38-67l9-9h51l9 8 14 18 5 9 21-23 20-22h58l8 13 8 12 3 24 2 24 22 3c24 3 34 9 41 23 3 4 13 45 23 91l18 84 3 67 4 67 8 31c5 17 12 51 14 76l5 45-4 40-5 39-10 33c-20 65-50 110-94 146l-27 21-45 21-45 21-43 9-43 9H242z" style="display:inline;fill:#ecf6fa"/><path id="path73" d="m242 893-15-6-8-12-8-13 2-20 2-21 10-14c6-7 10-15 10-16 0-2-15-19-33-39l-33-37-16-33-16-33-7-34-7-34v-29c0-60 20-123 56-178l23-35 76-79 77-79 26-49 40-77 14-28 17-9 17-8 17 5 16 6 10 16c5 9 12 16 14 16s11-10 19-21c17-23 30-31 51-31h13l13 11 12 10 2 21 5 33 2 11 14-3 14-3 11 4c6 3 15 10 19 16l7 11 17 72 17 72 4 73 5 73 12 51 12 52v112l-10 36-10 36-17 36-18 36-31 31-30 31-27 16c-15 9-46 23-69 32l-42 15-46 7-45 7H256zm154-30 19-4 11-12 12-11-3-6-4-5h-41l-2-4-3-5 8-2c5-1 24-5 44-7 33-5 73-13 88-17l6-2-5-7-6-7 3-15c1-9 6-20 10-26l7-11 28-14 29-14-9-10-8-9 5-13 5-14-25 9c-13 4-45 12-71 16l-48 9-24 12-25 12-10 18-9 18-18 6c-23 8-53 28-59 40l-5 9 11 5 29 7 17 3-2 10-1 10-11 2-11 1-26-12-25-13-14 13-14 14 1 11 2 12 11 3c7 2 35 4 64 4h51zm210-273 2-11h12l12-1 17-10 16-10-4-15-9-24-10-32c-3-12-7-23-9-25l-3-2-8 37a1151 1151 0 0 1-24 91l-2 12h4c3 0 5-4 6-10zm-306-88c6-5 15-9 20-9 4 0 11-4 14-8s28-24 54-44l48-37 12-21 12-21 3-24 3-24-15 10c-8 6-14 13-14 14 0 2-6 6-13 9l-12 6 6-9 26-30c11-11 23-28 28-37l8-16 2-30 2-31-14 22c-8 12-31 39-51 60l-36 38-1-4c-1-3 13-23 31-46 38-47 58-80 66-110l6-21-1-31c0-17-1-38-3-46l-3-14h-11l-26 52c-14 29-36 69-48 88l-23 36-60 60c-34 33-70 71-80 85l-20 26 11 7 10 7 3 19c1 10 4 18 6 18 3 0 15-10 28-21 14-12 25-21 27-20 3 3-9 25-28 49l-15 20 3 3 3 3 14-6 14-6 21-22c12-13 24-23 26-23h5l-3 8c-1 4-12 17-22 29-21 22-36 42-36 48s10 4 23-6z" style="display:inline;fill:#e7e8e8"/><path id="path72" d="m261 893-23-6-8-10c-5-6-10-16-12-23l-3-12 13-24c6-13 12-27 12-31v-7l-24-23c-13-13-32-35-42-50l-18-28-13-38-12-38v-49l-1-49 11-36c13-41 23-62 49-100l19-28 73-75 73-75 22-39c13-21 30-54 39-72l15-35 13-12 13-13h29l7 6c4 3 11 13 16 21l7 15h6c4 0 16-11 28-25l22-26 10-3 10-3 11 3 12 3 9 15 9 15v49h45l10 7 10 7 5 15 20 81 14 66 4 75 4 75 10 32 10 33 3 57 2 56-5 32-6 32-16 41-17 41-22 27c-38 48-88 80-162 105l-43 14-60 7-61 7h-47l-47-1zm126-26 28-4 13-13 14-13-2-7-1-7-16-3-17-2 56-11c31-6 64-13 73-16l16-5-11-3-12-3-2-10c0-5 2-17 6-26l7-16 38-20c20-11 38-21 38-23s-6-3-13-3h-13l-2-10-1-10 13-12 13-12-17 7c-19 7-115 30-129 30-5 0-21 5-35 12l-25 11-10 11c-5 6-11 16-13 21l-3 11h-6c-3 0-19 6-35 14l-29 15-9 13c-5 7-9 15-9 18v4l21 4c29 4 35 6 35 14v7h-27l-17-12-22-12c-2 0-12 7-21 15l-16 15v21l6 4c14 9 96 13 136 6zm247-288 32-21v-6c0-11-29-106-33-106-2 0-5 7-7 15-7 37-21 96-26 109-5 17-6 30-1 30 1 0 17-9 35-21zm-338-70c3-3 10-8 16-10 9-3 46-30 57-42 2-3 17-14 32-25l27-19 14-20 14-19 7-25 7-24-6-10-6-9 13-27c7-15 14-35 15-44l3-18-3-9c-2-6-5-10-6-10-2 0-8 7-13 16-4 9-12 20-18 25l-9 8 15-25c8-14 19-37 24-51l9-27v-37c-1-21-2-43-4-50l-3-11-8-2-7-1-28 57c-16 32-37 72-48 89l-20 30-67 68a611 611 0 0 0-100 117c0 1 4 3 10 3l11-1 5 21c2 11 7 21 9 22 3 1 13-4 23-10l18-13-8 13-18 29-10 17 14-3 25-6 11-4-10 18c-6 10-10 19-10 22v4h9c4 0 11-3 14-7z" style="display:inline;fill:#d0edf4"/><path id="path71" d="m261 893-23-6-8-10c-5-6-10-16-12-23l-3-12 13-24c6-13 12-27 12-31v-7l-24-23c-13-13-32-35-42-50l-18-28-13-38-12-38v-49l-1-49 11-36c13-41 23-62 49-100l19-28 73-75 73-75 22-39c13-21 30-54 39-72l15-35 13-12 13-13h29l7 6c4 3 11 13 16 21l7 15h6c4 0 16-11 28-25l22-26 10-3 10-3 11 3 12 3 9 15 9 15v49h45l10 7 10 7 5 15 20 81 14 66 4 75 4 75 10 32 10 33 3 57 2 56-5 32-6 32-16 41-17 41-22 27c-38 48-88 80-162 105l-43 14-60 7-61 7h-47l-47-1zm126-26 28-4 13-13 14-13-2-7-1-7-16-3-17-2 56-11c31-6 64-13 73-16l16-5-11-3-12-3-2-10c0-5 2-17 6-26l7-16 38-20c20-11 38-21 38-23s-6-3-13-3h-13l-2-10-1-10 11-10 20-16 9-8-14 7c-20 9-70 24-103 31-57 11-69 15-91 26l-23 11-8 19-8 19h-6c-3 0-18 6-34 14l-29 15-9 13c-5 7-9 15-9 18v4l21 4c29 4 35 6 35 14v7h-27l-17-12-22-12c-2 0-12 7-21 15l-16 15v21l6 4c14 9 96 13 136 6zm166-224 19-9v-7c0-4-2-13-5-19l-5-12 7-18c10-23 22-64 22-73v-8l-13 3-18 5-6 2v23l-9 3-10 2-10-6c-6-4-21-8-33-10l-22-3-3 9-2 8 8 21c5 11 12 37 15 56l8 41 2 7 17-4c10-1 27-7 38-11zm80-60 33-21v-8c0-12-29-108-33-108-2 0-42 146-42 156 0 7 9 3 42-19zm-339-72a703 703 0 0 0 136-105l24-23 8-27 8-28-5-13-5-13 9-16c5-9 12-27 15-40l5-25-3-12c-1-6-4-11-6-11s-8 7-13 16c-4 9-12 20-18 25l-9 8 15-25c8-14 19-37 24-51l9-27v-37c-1-21-2-43-4-50l-3-11-8-2-7-1-28 57c-16 32-37 72-48 89l-20 30-67 68a611 611 0 0 0-100 117c0 1 4 3 10 3l11-1 5 21c2 11 7 21 9 22 3 1 13-4 23-10l18-13-8 13-18 29-10 17 14-3 25-6 11-4-10 18c-6 10-10 19-10 22v4h9c5 0 10-2 12-5zm256-67 55-36v-7c0-4 3-8 7-9l7-3 8 5 9 5 14-53c8-29 14-55 13-58l-2-5-26-3c-14-2-26-3-27-2s1 18 5 38l7 36-2 7-3 7h-24l-9 9-14 18-5 11h-7c-4 0-7 2-7 4s-12 16-27 31l-26 26-4-8-3-9-1 7-3 19-3 11 7-3c4-1 31-18 61-38z" style="display:inline;fill:#b3e8f5"/><path id="path70" d="m261 893-23-6-8-10c-5-6-10-16-12-23l-3-12 13-24c6-13 12-27 12-31v-7l-24-23c-13-13-32-35-42-50l-18-28-13-38-12-38v-49l-1-49 11-36c13-41 23-62 49-100l19-28 73-75 73-75 22-39c13-21 30-54 39-72l15-35 13-12 13-13h29l7 6c4 3 11 13 16 21l7 15h6c4 0 16-11 28-25l22-26 10-3 10-3 11 3 12 3 9 15 9 15v49h45l10 7 10 7 5 15 20 81 14 66 4 75 4 75 10 32 10 33 3 57 2 56-5 32-6 32-16 41-17 41-22 27c-38 48-88 80-162 105l-43 14-60 7-61 7h-47l-47-1zm126-26 28-4 13-13 14-13-2-7-1-7-16-3-17-2 56-11c31-6 64-13 73-16l16-5-11-3-12-3-2-10c0-5 2-17 6-26l7-16 38-20c20-11 38-21 38-23s-6-3-13-3h-13l-2-10-1-10 11-10 20-16 9-8-14 7c-20 9-70 24-103 31-57 11-69 15-91 26l-23 11-8 19-8 19h-6c-3 0-18 6-34 14l-29 15-9 13c-5 7-9 15-9 18v4l21 4c29 4 35 6 35 14v7h-27l-17-12-22-12c-2 0-12 7-21 15l-16 15v21l6 4c14 9 96 13 136 6zm9-215 12-28h7c9 0 17 10 17 21 0 5 2 12 4 15l3 5 44-6c24-4 54-10 67-14l23-8 3-7 2-7-6-11-5-11 13-39 13-39 1-26c0-14 2-31 4-37l4-12-8 7-8 6v18h-8c-5 0-14-5-20-10l-11-10 20-18c12-10 24-18 27-18 7 0 15-15 12-23l-2-6 7-2 7-3 10 5 9 5 3-13c1-7 7-31 14-54l11-41-6-6-6-6-22-3c-13-2-23-3-24-2s2 20 6 42l8 41-5 5-6 6-6-3-7-2-6-29-7-28-16 14-14 14h-14c-8 0-15 1-16 4-2 2-15 41-29 87l-26 83-15 26c-8 15-31 51-51 80l-37 53 5 6c3 4 7 7 9 7s9-13 16-28zm216-55 36-24 18-11v-8c0-12-29-108-33-108-1 0-12 33-22 74l-22 82-4 8h4c2 0 13-6 23-13zm-318-86a703 703 0 0 0 136-105l24-23 8-27 8-28-5-13-5-13 9-16c5-9 12-27 15-40l5-25-3-12c-1-6-4-11-6-11s-8 7-13 16c-4 9-12 20-18 25l-9 8 15-25c8-14 19-37 24-51l9-27v-37c-1-21-2-43-4-50l-3-11-8-2-7-1-28 57c-16 32-37 72-48 89l-20 30-67 68a611 611 0 0 0-100 117c0 1 4 3 10 3l11-1 5 21c2 11 7 21 9 22 3 1 13-4 23-10l18-13-8 13-18 29-10 17 14-3 25-6 11-4-10 18c-6 10-10 19-10 22v4h9c5 0 10-2 12-5z" style="display:inline;fill:#ced4e6"/><path id="path69" d="m261 893-23-6-8-10c-5-6-10-16-12-23l-3-12 13-24c6-13 12-27 12-31v-7l-24-23c-13-13-32-35-42-50l-18-28-13-38-12-38v-49l-1-49 11-36c13-41 23-62 49-100l19-28 73-75 73-75 22-39c13-21 30-54 39-72l15-35 13-12 13-13h29l7 6c4 3 11 13 16 21l7 15h6c4 0 16-11 28-25l22-26 10-3 10-3 11 3 12 3 9 15 9 15v49h45l10 7 10 7 5 15 20 81 14 66 4 75 4 75 10 32 10 33 3 57 2 56-5 32-6 32-16 41-17 41-22 27c-38 48-88 80-162 105l-43 14-60 7-61 7h-47l-47-1zm130-25 27-4 14-14 15-15-3-9-3-10 13-2a6760 6760 0 0 0 70-15c8-1 31-9 51-16l36-14 28-22 29-22-5-2c-3 0-13 4-22 10-18 12-76 38-98 43l-13 3v-10c0-6 4-17 7-25l8-16 24-11c34-16 73-42 94-63 20-21 19-27-2-9-8 7-26 17-38 24l-24 12-4-5-5-5 2-6c2-4 18-17 36-29 19-12 45-33 59-45l25-24 12-20 12-21v-21l-13 22c-8 13-21 32-31 43l-17 21-27 18c-37 25-51 32-76 36l-21 3 13-8 13-7v-7c0-4-2-11-5-15l-6-9 14-39 13-40 1-26c0-14 2-31 4-37l4-12-8 7-8 6v18h-8c-5 0-14-5-20-10l-11-10 20-18c12-10 24-18 27-18h6l8-14 7-15h7c3 0 7 3 7 5 0 3 2 5 4 5h5v-8c0-5 6-31 14-58l14-49-7-5c-8-6-49-13-53-9-1 1 1 19 6 40l8 38-7 7-7 8-4-3c-3-2-8-16-11-31l-7-28-16 14-14 14h-14c-8 0-15 1-16 4-2 2-15 41-29 87l-26 83-15 26c-8 15-31 51-51 80l-37 53 5 6c3 4 7 7 9 7s9-13 16-28l13-29 7 2c9 1 14 10 18 29l3 13 10-3 34-5 23-4-4 5-3 5-22 3-22 3-23 11c-26 12-42 27-49 45l-4 12-24 8-24 8-19 18-18 18v15h-7c-4 0-15 7-24 15l-16 15v21l6 4c13 9 94 13 140 7zm240-283c21-14 37-27 37-30l-16-57-15-52-5 1-5 2-20 79-20 81c-1 4 12-3 44-24zm-393-79 9-14 18-6 17-6v4c0 2-2 5-5 6-5 4-24 41-21 44 1 0 4-2 7-6l6-7h27l3-5a1128 1128 0 0 0 98-76l46-39 12-23 12-23v-31l1-30 8-16 9-17 2-28 2-28-7-9-7-9 7-21 6-21v-38c-1-21-2-43-4-50l-3-11-8-2-7-1-28 57c-16 32-37 72-48 89l-20 30-66 68c-37 37-73 76-81 86-20 26-39 60-44 77l-4 15 4-3c3-1 7-11 10-21l6-18 9-8 9-9 6 9c4 5 7 14 7 19s2 12 4 16l4 6 13-3 14-4-9 14c-14 20-35 64-35 69v5l6-8 15-23z" style="display:inline;fill:#d7d7d8"/><path id="path68" d="m267 891-18-4-13-12-12-12v-32l13-19c7-10 12-19 12-21s-12-17-27-33-35-41-45-55l-16-27-12-34-11-35-3-30-4-31 6-34 5-34 14-37 14-36 24-34 24-35 65-65 65-64 16-25c9-13 30-51 48-85l32-60 12-7 13-7 13 4 13 5 11 20c6 11 13 19 15 19 3 0 10-6 17-14l25-28 12-13 12-3 12-3 13 11 13 11 3 33 3 32 22-1 23-2 7 6c12 10 19 31 35 101l14 65 4 72 4 73 11 40 11 39v141l-11 33c-6 18-18 47-27 64l-17 31-33 32-34 32-35 17c-47 24-83 36-131 44l-40 7-75 2-75 2zm134-23 18-5 14-13 13-13-2-10-3-11 13-3a6011 6011 0 0 0 70-14c8-1 31-9 51-16l36-14 28-22 29-22-5-2c-3 0-13 4-22 10-18 12-76 38-98 43l-13 3v-10c0-6 4-17 7-25l8-16 24-11c34-16 73-42 94-63 20-21 19-27-2-9-8 7-26 17-38 24l-24 12-4-5-5-5 2-6c2-4 18-17 36-29 19-12 45-33 59-45l25-24 12-20 12-21v-21l-13 22c-8 13-21 32-31 43l-17 21-27 18c-37 25-51 32-76 36l-21 3 13-8 13-7v-7c0-4-2-11-5-15l-6-9 14-39 13-40 1-26c0-14 2-31 4-37l4-12-8 7-8 6v18h-8c-5 0-14-5-20-10l-11-10 20-18c12-10 24-18 27-18h6l8-14 7-15h13l3 8c1 4 4 7 5 5 4-4 30-98 30-109v-11l-8-4c-5-2-18-6-31-8l-22-3v7l8 40 7 34-7 7-7 8-4-3c-3-2-8-16-11-31l-7-28-16 14-14 14h-14c-8 0-15 1-16 4-2 2-15 41-29 87l-26 83-15 26c-8 15-31 51-51 80l-37 53 5 6c3 4 7 7 9 7s9-13 16-28l13-29 7 2c9 1 14 10 18 29l3 13 10-3 34-5 23-4-4 5-3 5-22 3-22 3-23 11c-26 12-42 27-49 45l-4 12-25 8-25 9-24 24c-13 13-29 28-36 32-7 5-16 14-21 20l-7 12 5 11 5 12 11 2 67 2 56 1zm233-284c18-12 34-25 35-28 2-4-15-70-29-114l-2-7-5 5c-3 3-14 38-24 79l-21 83-3 9 8-3c4-1 22-12 41-24zm-396-78 9-14 18-6 17-6v4c0 2-2 5-5 6-5 4-24 41-21 44 1 0 4-2 7-6l6-7h27l3-5a1128 1128 0 0 0 98-76l46-39 12-23 12-23v-31l1-30 8-16 9-17 2-28 2-28-7-9-7-9 6-18 7-18 13-12 13-12-11 5-10 5v-23c0-13-2-34-5-47l-5-23-6-2c-3-1-8-1-11 1-2 1-16 27-31 57s-37 70-49 89l-23 35-53 51c-81 79-116 127-131 177l-4 13 4-3c3-1 7-11 10-21l6-18 9-8 9-9 6 9c4 5 7 14 7 19s2 12 4 16l4 6 13-3 14-4-9 14c-14 20-35 64-35 69v5l6-8 15-23z" style="display:inline;fill:#aed6e9"/><path id="path67" d="m267 891-18-4-13-12-12-12v-32l13-19c7-10 12-19 12-21s-12-17-27-33-35-41-45-55l-16-27-12-34-11-35-3-30-4-31 6-34 5-34 14-37 14-36 24-34 24-35 65-65 65-64 16-25c9-13 30-51 48-85l32-60 12-7 13-7 13 4 13 5 11 20c6 11 13 19 15 19 3 0 10-6 17-14l25-28 12-13 12-3 12-3 13 11 13 11 3 33 3 32 22-1 23-2 7 6c12 10 19 31 35 101l14 65 4 72 4 73 11 40 11 39v141l-11 33c-6 18-18 47-27 64l-17 31-33 32-34 32-35 17c-47 24-83 36-131 44l-40 7-75 2-75 2zm134-23 18-5 14-13 13-13-2-10-3-11 13-3a6011 6011 0 0 0 70-14c8-1 31-9 51-16l36-14 28-22 29-22-5-2c-3 0-13 4-22 10-18 12-76 38-98 43l-13 3v-10c0-6 4-17 7-25l8-16 24-11c34-16 73-42 94-63 20-21 19-27-2-9-8 7-26 17-38 24l-24 12-4-5-5-5 2-6c2-4 18-17 36-29 19-12 45-33 59-45l25-24 12-20 12-21v-21l-15 25c-19 32-44 57-87 85l-35 23h-17v-17l44-29 45-29v-7c0-6-22-86-31-115l-3-7-6 8c-3 5-8 20-12 34-3 15-9 28-12 31l-5 5-3-12-3-12 9-24 10-25v-22c0-13 1-23 3-23l11 8 8 7 3-8c14-49 26-97 26-107v-12l-8-4-30-7-22-3-3 4c-1 2 2 20 7 40l8 37-2 7-3 6-5-2c-5-1-9-10-17-45l-6-21-14 17-14 18h-30l-5 6c-3 3-16 41-29 85-14 44-28 87-33 96-8 16-44 70-81 123l-19 27 9 9c4 6 11 10 14 10h5l13-29 12-29 7 6c3 3 7 11 9 18l5 20 3 8-20 9-21 10-10 20-10 21-24 8-25 9-24 24c-13 13-29 28-36 32-7 5-16 14-21 20l-7 12 5 11 5 12 11 2 67 2 56 1zM238 506l9-14 18-6 17-6v4c0 2-2 5-5 6-5 4-24 41-21 44 1 0 4-2 7-6l6-7h27l3-5a1128 1128 0 0 0 98-76l46-39 12-23 12-23v-31l1-30 8-16 9-17 2-28 2-28-7-9-7-9 6-18 7-18 13-12 13-12-11 5-10 5v-23c0-13-2-34-5-47l-5-23-6-2c-3-1-8-1-11 1-2 1-16 27-31 57s-37 70-49 89l-23 35-53 51c-81 79-116 127-131 177l-4 13 4-3c3-1 7-11 10-21l6-18 9-8 9-9 6 9c4 5 7 14 7 19s2 12 4 16l4 6 13-3 14-4-9 14c-14 20-35 64-35 69v5l6-8 15-23z" style="display:inline;fill:#c3c5da"/><path id="path65" d="M266 886c-8-2-19-9-25-14l-10-10v-31l12-18 12-17-3-11-3-11-11-8c-17-10-55-60-70-89-6-13-15-37-20-53l-8-31v-79l6-26c10-40 27-79 51-112l21-31 69-70 69-70 16-26c9-14 28-48 41-75 23-46 39-70 48-70 5 0-57 123-80 158l-19 29-52 50c-29 28-65 67-81 86l-28 35-18 39-19 39-1 52v34c4-31 15-78 27-105 13-33 17-39 23-37l5 2 5 21 5 21 11-1c6-1 10 0 10 1l-8 15c-17 24-33 59-41 92l-9 33v77l11 11 11 10-8-14-7-15 4-2 4-1 3-42 2-43 12-28 17-40 6-13 14-5 14-5-6 8c-12 14-27 45-37 76l-10 30v41l-1 41 18 36c9 19 19 36 22 38 8 5 10-3 2-11-10-12-18-37-22-69l-3-28 4-33 4-33 12-29 13-29h26l6-9a1365 1365 0 0 0 120-98l25-21 12-26 12-25-3-24-2-23 10-19 9-20 2-27 2-28-6-10-5-11 3-13 3-12 11-11c15-13 55-68 53-71-1-1-8 6-15 16-14 18-31 33-37 34h-3V60l-7-14-7-13 10 7 10 6 6 16 5 16 7 2 7 1 25-28c14-16 29-31 34-33l8-5 10 3c5 1 11 7 15 13l5 10 3 30 2 31 27-2 27-1 7 12 8 11 16 72 16 72 4 72 4 73 11 40 11 39v136l-8 28c-5 16-16 44-25 63l-17 35-31 31-31 31-37 19c-48 25-88 38-139 47l-39 7-75 2-75 2zm147-19 17-5 10-12 11-11-3-11-2-10 44-8c24-5 61-15 82-22l39-14 24-17 42-34 17-17v-11c0-13-5-13-13-1-13 21-119 80-144 80h-7l3-11c2-6 6-15 10-21l6-11 27-13c40-19 69-40 105-76 31-31 36-38 28-43l-4-3-18 17-31 28c-13 12-50 34-57 34-2 0-3-3-3-6v-7l31-19 31-20 38-38 39-38 2-23 3-22h-3c-2 0-8 10-14 22l-10 21-22 24-23 24-34 22-35 23h-17v-17l44-29 45-29v-13c0-15-10-50-25-92l-10-27-5 7c-3 5-9 21-12 36l-6 28-6 5-5 5-3-12-3-12 9-24 10-25v-19c0-11 1-21 3-22l3-4 8 8 8 7 3-8c14-49 26-97 26-107v-12l-8-4-30-7-22-3-3 4c-1 2 2 20 7 40l8 37-2 7-3 6-5-2c-5-1-9-10-17-45l-6-21-14 17-14 18h-30l-5 6c-3 3-16 41-29 85-14 44-28 87-33 96-8 16-44 70-81 123l-19 27 9 9c4 6 11 10 14 10h5l13-29 12-29 7 6c3 3 7 11 9 18l5 20 3 7-19 9-19 9-14 22c-8 13-16 23-19 23-2 0-14 4-25 10l-21 10-26 24c-14 13-31 29-39 34l-14 11-3 12-3 13 7 7 7 7 25 4c13 2 47 2 74 1l49-1zm-53-247 34-43 17-20-7 4c-17 10-80 55-82 59l-3 4 8 10c4 5 10 9 11 9 2 0 12-10 22-23z" style="display:inline;fill:#bcc1d7"/><path id="path62" d="M266 886c-8-2-19-9-25-14l-10-10v-31l12-18 12-17-3-11-3-11-11-8c-17-10-55-60-70-89-6-13-15-37-20-53l-8-31v-79l6-26c10-40 27-79 51-112l21-31 69-70 69-70 16-26c9-14 28-48 41-75 23-46 39-70 48-70 5 0-57 123-80 158l-19 29-52 50a724 724 0 0 0-124 149c-7 12-16 38-21 58l-9 35v67l9 34c6 19 15 46 22 60l12 26 30 32 31 32h9c11 0 11-2 0-20-5-8-13-27-17-42l-8-28 2-31 1-31 13-27 13-28 19-22c21-22 39-38 110-96l43-35 13-26 13-27 1-31v-31l8-14c4-8 9-25 11-39l3-23-7-15-8-15 5-12c3-7 12-20 20-29 21-22 55-71 52-75-1-1-6 3-10 9-13 18-45 52-49 52h-4V60l-7-14-7-13 10 7 10 6 6 16 5 16 7 2 7 1 25-28c14-16 29-31 34-33l8-5 10 3c5 1 11 7 15 13l5 10 3 30 2 31 26-1 27-2 8 13 8 12 16 71 16 71 4 72 4 73 11 40 11 39v136l-8 28c-5 16-16 44-25 63l-17 35-31 31-31 31-37 19c-48 25-88 38-139 47l-39 7-75 2-75 2zm187-23 56-9 33-11 62-27 29-16 28-26 28-26 14-29c8-15 18-41 24-56l10-27 3-72 2-72-5-5-5-5v9c0 15-22 55-44 79l-20 23-34 22-35 23h-17v-17l44-29 45-29v-41l-7-17c-4-9-7-22-7-29v-12l-8-11-7-11v-13c-1-16 23-101 29-105l4-2-3-18-3-18-9-6c-6-3-20-7-32-9l-22-3-3 4c-1 3 1 21 5 40l7 36-3 8-3 8-7-9c-3-5-6-12-6-16l-5-26-5-18-16 17-16 17h-27l-5 6c-3 3-16 41-29 85-14 44-29 87-33 96-8 16-43 70-81 123l-19 27 9 9c4 6 11 10 14 10h5l13-29 12-29 6 5c3 4 8 15 11 25l6 19-15 6c-18 8-33 24-40 41l-5 12-24 9-25 9-29 28c-16 15-35 33-43 38l-14 11-3 12-3 13 7 7c4 4 15 8 25 10l17 4 57-2 56-1zm-73-265c21-25 37-47 36-48-3-2-82 56-92 67l-6 7 9 9c4 5 10 10 12 10s21-21 41-45z" style="display:inline;fill:url(#linearGradient76);fill-opacity:1"/><path id="path61" d="M266 886c-8-2-19-9-25-14l-10-10v-31l12-18 12-17-3-11-3-11-11-8c-17-10-55-60-70-89-6-13-15-37-20-53l-8-31v-79l6-26c10-40 27-79 51-112l21-31 69-70 69-70 16-26c9-14 28-48 41-75 23-46 39-70 48-70 5 0-57 123-80 158l-19 29-52 50a724 724 0 0 0-124 149c-7 12-16 38-21 58l-9 35v67l9 34c6 19 15 46 22 60l12 26 30 32 31 32h9c11 0 11-2 0-20-5-8-13-27-17-42l-8-28 2-31 1-31 13-27 13-28 19-22c21-22 39-38 110-96l43-35 13-26 13-27 1-31v-31l8-14c4-8 9-25 11-39l3-23-7-15-8-15 5-12c3-7 12-20 20-29 21-22 55-71 52-75-1-1-6 3-10 9-13 18-45 52-49 52h-4V60l-7-14-7-13 10 7 10 6 6 16 5 16 7 2 7 1 25-28c14-16 29-31 34-33l8-5 10 3c5 1 11 7 15 13l5 10 3 30 2 31 26-1 27-2 8 13 8 12 16 71 16 71 4 72 4 73 11 40 11 39v136l-8 28c-5 16-16 44-25 63l-17 35-31 31-31 31-37 19c-48 25-88 38-139 47l-39 7-75 2-75 2zm187-23 56-9 33-11 62-27 29-16 28-26 28-26 14-29c8-15 18-41 24-56l10-27 3-72 2-72-5-5-5-5v9c0 15-22 55-44 79l-20 23-34 22-35 23h-17v-17l44-29 45-29v-41l-7-17c-4-9-7-22-7-28v-11l11 5 12 5v14l7-9c4-5 7-12 7-17 0-4 4-17 9-28l9-19-6-22c-17-56-35-106-42-112l-7-7-24-4-25-4-4 4-4 4 8 36 7 36-3 8-3 8-7-9c-3-5-6-12-6-16l-5-26-5-18-16 17-16 17h-27l-5 6c-3 3-16 41-29 85-14 44-29 87-33 96-8 16-43 70-81 123l-19 27 9 9c4 6 11 10 14 10h5l13-29 12-29 6 5c3 4 8 15 11 25l6 19-15 6c-18 8-33 24-40 41l-5 12-24 9-25 9-29 28c-16 15-35 33-43 38l-14 11-3 12-3 13 7 7c4 4 15 8 25 10l17 4 57-2 56-1zm-73-265c21-25 37-47 36-48-3-2-82 56-92 67l-6 7 9 9c4 5 10 10 12 10s21-21 41-45z" style="display:inline;fill:#8eb1cc"/><path id="path60" d="M266 886c-8-2-19-9-25-14l-10-10v-31l12-18 12-17-3-11-3-11-11-8c-17-10-55-60-70-89-6-13-15-37-20-53l-8-31v-79l6-26c10-40 27-79 51-112l21-31 69-70 69-70 16-26c9-14 28-48 41-75 23-46 39-70 48-70 5 0-57 123-80 158l-19 29-52 50a724 724 0 0 0-124 149c-7 12-16 38-21 58l-9 35v67l9 34c6 19 15 46 22 60l12 26 30 32 31 32h18l-3-8-17-46-14-37 3-30 2-29 11-25 11-24 26-29c23-26 49-49 125-113l24-20 13-24 12-24 1-31v-30l8-15 8-15 3-25 3-25-7-16-7-17 4-11c3-7 12-19 20-28 20-22 55-71 52-75-1-1-6 3-10 9-13 18-45 52-49 52h-4V60l-7-14-7-13 10 7 10 6 6 16 5 16 7 2 7 1 25-28c14-16 29-31 34-33l8-5 10 3c5 1 11 7 15 13l5 10 3 30 2 31 26-1 27-2 8 13 8 12 16 71 16 71 4 72 4 73 11 40 11 39v136l-8 28c-5 16-16 44-25 63l-17 35-31 31-31 31-37 19c-48 25-88 38-139 47l-39 7-75 2-75 2zm187-23 56-9 33-11 62-27 29-16 28-26 28-26 14-29c8-15 18-41 24-56l10-27 3-69 2-69-3-8-4-9-5 19c-8 26-28 55-53 78-26 24-81 61-88 58-3 0-6-5-6-9l-2-8 9-3 46-28 38-26-2-19c-1-11-5-28-9-37-3-10-6-23-6-29v-11l11 5 11 5 5 12 4 12v-10c1-12 8-37 17-58 4-9 6-19 5-21-10-37-41-128-45-132l-4-5-28-4-29-3-4 4-4 4 7 31c8 35 8 46 3 46h-4l-6-30-6-31h-4c-2 0-9 8-16 17l-13 16h-10l-20 3-10 3-12 40-29 92-17 52-11 15a636 636 0 0 1-46 72c-20 27-37 54-38 58l-3 7 8 10c4 5 12 9 16 9h8l10-24c5-13 11-23 14-23 5 0 10 15 10 29v7l-14 6-15 6-11 25-12 24-24 9-24 9-29 28c-16 15-35 33-43 38l-14 11-3 12-3 13 7 7c4 4 15 8 25 10l17 4 57-2 56-1zm-63-270c40-48 47-58 38-58-6 0-104 76-107 83l-3 6 9 9c4 5 11 10 14 10h6z" style="display:inline;fill:#acadb1"/><path id="path59" d="M385 880c2-2 30-7 64-12l60-10 34-11c19-7 49-20 67-29l33-17 27-29 26-29 13-26 23-53 10-28 3-75 2-75 4 19c2 10 4 35 4 55v36l-7 36-8 36-18 39-18 38-32 33-33 32-48 24-49 24-37 9-38 10-42 3-42 3zm-126-87v-14l-25-25a286 286 0 0 1-88-163v-6l4 4c3 2 9 20 15 40 13 43 30 74 61 108l23 27 15 3c8 1 15 2 17 0 1-1-2-9-7-18-5-8-14-31-20-49l-10-35 3-26 3-27 11-23 10-24 26-29c23-26 46-46 125-113l24-20 13-24 12-24 1-31v-30l8-15 8-15 3-26 3-26-6-14-6-14 3-11c2-5 11-19 21-29 21-24 70-95 72-107 1-5 5-11 10-14l8-5 12 13 12 14-2 30-1 30 6 4 7 3 20-6 21-6 9 9 8 8 15 63c20 84 24 111 24 160 0 22 2 56 5 74l5 33-5 5-5 5v52l-14 24-13 24-28 25c-15 14-40 33-54 41l-26 16-5-3c-3-2-5-6-5-10v-7l8-3 47-29 38-25v-29l19-59 19-58-22-66c-12-36-23-68-26-71l-4-5-28-4-29-3-4 4-4 4 7 31c8 35 8 46 3 46h-4l-6-30-6-31h-4c-2 0-9 8-16 17l-13 16h-10l-20 3-10 3-12 40-29 92-17 52-11 15a636 636 0 0 1-46 72c-20 27-37 54-38 58l-3 7 8 10c4 5 12 9 16 9h8l10-24c5-13 11-23 14-23 5 0 10 15 10 28v8l-15 7-16 7-11 24-11 24-27 10-28 10-25 25c-14 14-27 25-30 25h-5zm131-200c40-48 47-58 38-58-6 0-104 76-107 83l-3 6 9 9c4 5 11 10 14 10h6z" style="display:inline;fill:#73aecc"/><path id="path58" d="M385 880c2-2 30-7 64-12l60-10 34-11c19-7 49-20 67-29l33-17 27-29 26-29 13-26 23-53 10-28 3-75 2-75 4 19c2 10 4 35 4 55v36l-7 36-8 36-18 39-18 38-32 33-33 32-48 24-49 24-37 9-38 10-42 3-42 3zm-126-87v-14l-25-25a286 286 0 0 1-88-163v-6l4 4c3 2 9 20 15 40 13 43 30 74 61 108l23 27 15 3c8 1 15 2 17 0 1-1-2-9-7-18-5-8-14-31-20-49l-10-35 3-26 3-26 9-20 9-21 26-31c24-28 50-52 130-119l22-19 13-24 12-24 1-31v-30l8-15 8-15 3-26 3-26-6-14-6-14 3-11c2-5 11-19 21-29 21-24 70-95 72-107 1-5 5-11 10-14l8-5 12 13 12 14-2 30-1 30 6 4 7 3 20-6 21-6 9 9 8 8 15 63c20 84 24 111 24 160 0 22 2 56 5 74l5 33-5 5-5 5v50l-10 20-10 19-24 24-24 24-32 20c-18 11-35 19-36 19l-7-4-2-5 32-21 47-28 14-8v-34l19-59 19-58-24-74c-13-41-26-73-27-72-2 1-15 0-31-3l-27-4-5 4-4 5 8 35c4 20 7 38 6 42l-3 6-3-14-8-32-4-18-6 1c-3 0-10 7-16 16l-11 16h-15c-8 0-18 2-21 4l-6 4-28 88-27 88-9 12-9 12-10 3c-10 2-80 49-105 71l-15 12 3 7c2 4 11 13 21 19l19 12 10 17 9 16h15v6l-8 23-8 18-27 10-28 10-25 25c-14 14-27 25-30 25h-5z" style="display:inline;fill:#5aa9e6"/><path id="path57" d="M385 880c2-2 30-7 64-12l60-10 34-11c19-7 49-20 67-29l33-17 27-29 26-29 13-26 23-53 10-28 3-75 2-75 4 19c2 10 4 35 4 55v36l-7 36-8 36-18 39-18 38-32 33-33 32-48 24-49 24-37 9-38 10-42 3-42 3zm-126-87v-14l-25-25a286 286 0 0 1-88-163v-6l4 4c3 2 9 20 15 40 13 43 30 74 61 108l23 27 15 3c8 1 15 2 17 0 1-1-2-9-7-18-5-8-14-31-20-49l-10-35 3-26 3-26 9-20 9-21 26-31c24-28 50-52 130-119l22-19 13-24 12-24 1-31v-30l8-15 8-15 3-26 3-26-6-14-6-14 3-11c2-5 11-19 21-29 21-24 70-95 72-107 1-5 5-11 10-14l8-5 12 13 12 14-2 30-1 30 6 4 7 3 20-6 21-6 9 9 8 8 15 63c20 84 24 111 24 160 0 22 2 56 5 74l5 33-5 5-5 5v50l-9 18c-12 23-32 47-40 47a307 307 0 0 1-76 55l-10 6-3-4-3-4 45-29 44-28v-35l19-59 19-58-23-71-23-70 2-72c2-39 2-71 0-71l-38 73-35 72 7 31c4 17 6 35 5 39l-1 8-4-14-8-32-4-18-6 1c-3 0-10 7-16 16l-11 16h-15c-8 0-18 2-21 4l-6 4-28 88-27 88-9 12-9 13-9 1c-8 2-71 44-106 71l-13 10v15l31 30 31 29h13v6l-8 23-8 18-27 10-28 10-25 25c-14 14-27 25-30 25h-5z" style="display:inline;fill:#9697a9"/><path id="path56" d="M269 787c-8-8-7-13 4-13 5 0 10-2 11-5l3-4-14-25-14-25-7-30-8-29 5-24c3-14 10-36 17-49l11-25 41-41c23-23 61-56 85-75l43-34 14-30 15-30-1-22-2-23 10-27 11-27v-47l-5-9-4-8 5-15c2-8 7-14 9-14 6 0 72-90 82-112l8-20 7 2c4 0 10 6 14 13l6 11-3 32-3 32 8 2 7 3 19-7 25-8h7l7 13c4 8 14 48 23 91l17 76 2 107 3 107-10 22c-5 12-14 28-21 37l-12 15h-6c-3 0-7 4-9 7-1 4-19 18-38 31l-36 23-5-3-4-2 3-3c1-2 21-15 43-29l40-26 10-40 21-75 11-36-19-60-24-73-4-13 2-71c2-38 2-70 0-70l-38 73-35 72 7 31c4 17 6 35 5 39l-1 8-4-14-8-32-4-18-6 1c-3 0-10 7-16 16l-11 16h-15c-8 0-18 2-21 4l-6 4-28 88-27 88-9 12-9 12-12 3c-10 3-58 35-103 70l-13 10v15l31 30 31 29h6c9 0 9 7-2 28l-9 17-25 9-25 9-22 20c-11 11-22 20-23 20l-8-5z" style="display:inline;fill:#9272a5"/><path id="path55" d="m271 785-3-7 9-3 10-2v-8c0-5-3-12-7-17s-7-12-7-15v-6l7 3 7 3v-6c0-4-3-6-12-5-2 1-7-3-11-9l-8-9-6-26-6-26 7-28c4-15 12-37 18-48l10-20 40-40c22-22 60-55 84-74l43-34 14-30 15-30-1-22-2-23 11-28 11-28-3-28-3-39-1-11 16-17c26-27 77-99 85-119l3-8 7 2c3 2 9 9 11 16l5 13-3 31-2 31h9c5 0 18-3 29-7l24-7c8 0 15 22 31 90l15 68 3 75c2 40 2 73 1 71-2-1-12-27-22-58-11-31-22-61-26-66l-6-10 2-71c2-39 2-71 0-71l-38 73-35 72 7 31c4 17 6 35 5 39l-1 8-4-14-8-32-4-18-6 1c-3 0-10 7-16 16l-11 16h-15c-8 0-18 2-21 4l-6 4-28 88-27 88-9 12-9 12-12 3c-10 3-58 35-103 70l-13 10v15l31 30 31 29h6c9 0 9 7-2 28l-9 17-27 9-26 9-23 20-22 20zm318-156-3-4 45-29c24-15 44-29 44-30 0-24 36-134 47-145l5-5-2 46-1 47-9 17c-4 9-13 23-19 31l-12 15h-6a307 307 0 0 1-76 55l-10 6z" style="display:inline;fill:#6a8bb1"/><path id="path54" d="m271 785-3-7 9-3 10-2v-8c0-5-3-12-7-17s-7-12-7-15v-6l7 3 7 3v-6c0-4-6-7-15-6-2 1-7-9-13-22l-10-23v-21c0-11 4-31 7-44l8-24 20-27c25-33 62-69 143-137l25-21 12-26 12-26v-28l1-28 8-19 9-19v-18c0-11-1-30-3-43l-4-24 16-18c29-33 78-102 85-120l3-8 7 2c3 2 9 9 11 16l5 13-3 31-2 31h9c5 0 18-3 29-7l21-7 11 16 10 16 14 65 14 65 3 71c2 39 2 72 1 72-2 0-10-21-18-46l-25-70-11-23 4-68c2-37 2-69 1-72l-3-4-19 39-39 78-20 38-19 20-18 20-20 3-19 3-6 18-30 95-24 75-34 16-34 16-28 4-31 6c-2 2-6 19-9 38l-5 34 33 32c18 18 35 33 38 34l6 2-10 19-10 18-26 9-26 9-23 20-22 20zm407-221c-3-5 2-25 20-83 8-26 18-52 22-57l6-8-2 49-3 49-11 19c-6 11-15 23-20 27l-9 8z" style="display:inline;fill:#2b86db"/><path id="path53" d="m271 785-3-7 9-3 10-2v-8c0-5-3-12-7-17s-7-12-7-15v-6l7 3 7 3v-6c0-4-6-7-15-6-2 1-7-9-13-22l-10-23v-21c0-11 4-31 7-44l8-24 20-27c25-33 62-69 143-137l25-21 12-26 12-26v-28l1-28 8-19 9-19v-18c0-11-1-30-3-43l-4-24 16-18c29-33 78-102 85-120l3-8 7 2c3 2 9 9 11 16l5 13-3 31-2 31h9c5 0 18-3 29-7l21-7 11 16 10 16 14 65 14 65 3 71c2 39 2 72 1 72-2 0-10-21-18-46l-25-70-11-23 4-68 3-67-3-4-3-3-38 76-38 76-19 21-19 20-20 3-19 3-30 92c-16 52-30 95-33 97l-36 18-33 15-27 2-28 3-2 8-6 15c-2 4-4 21-4 37l-1 28-7 16c-3 9-5 18-4 19 2 2 13 3 26 3h22l19 8 19 9-9 19-10 18-26 9-26 9-23 20-22 20zm407-221c-3-5 2-25 20-83 8-26 18-52 22-57l6-8-2 49-3 49-11 19c-6 11-15 23-20 27l-9 8z" style="display:inline;fill:#5070aa"/><path id="path52" d="m271 785-3-7 9-3 10-2v-8c0-5-3-12-7-17s-7-12-7-15v-6l7 3 7 3v-6c0-4-6-7-15-6-2 1-7-9-13-22l-10-23v-41l8-23 7-23 22-28c13-16 25-28 27-27l4 1v22l-3 60-2 38-6 9-5 10 3 3c2 2 13 3 26 3h22l17 8 16 8v5c0 3-3 12-7 19l-7 14-26 9-26 9-23 20-22 20zm408-224c-3-4 1-22 19-80 8-26 18-52 22-57l8-8-3 18c-2 11-3 33-3 49v31l-15 23c-15 23-22 29-28 24zm-354-22c-3-3-5-10-5-14v-9l12-10a2266 2266 0 0 0 95-83l25-21 12-26 12-26v-28l1-28 8-17 9-18v-20c0-11-1-31-3-44l-4-24 16-18c29-33 78-102 85-120l3-8 7 2c3 2 9 9 11 16l5 13-3 31-2 31h9c5 0 18-3 30-7l20-7 4 4 4 4-10 12c-5 7-25 44-44 82-18 38-41 79-49 91l-16 23h-14c-7 0-17 2-22 4l-8 5-7 22-27 83c-10 34-22 66-26 71l-6 10-28 7-87 22-7-5zm371-192-22-63 1-51c0-28 2-64 3-79l3-27 4 4c2 2 10 33 18 69l14 66 3 71c2 39 2 72 1 72l-25-62z" style="display:inline;fill:#696d92"/><path id="path51" d="M302 744c-3-3-6-10-8-16l-3-10-12-3-12-3-9-20-8-19-1-17c0-9 4-27 7-40l7-23 23-30 22-30 5 1 4 1v22l-3 60-2 38-6 9-5 10 3 3c2 2 13 3 26 3h22l17 8 16 8v5c0 3-4 11-9 19l-8 13-23 8c-28 10-37 11-43 3zm378-187c0-3 7-30 16-59l17-55c0-1 2-1 5 1l4 3v21c0 29-7 55-22 77-12 18-20 23-20 12zm-355-18c-3-3-5-9-5-14v-7l33-30c19-17 45-39 60-50 32-25 49-47 59-77l8-24-3-19-2-19 10-19 10-19v-40l-1-41 15-5c9-3 28-14 44-24l29-19h11c6 0 24-5 39-11 16-7 33-12 37-12h8l-8 10c-5 6-24 44-44 84-20 39-44 82-52 94l-16 23h-14c-7 0-17 2-22 4l-8 5-7 22-27 83c-10 34-22 66-26 71l-6 10-28 7-87 22-7-5zm353-254-6-10 3-69c2-38 5-70 6-72 3-2 10 26 27 107l6 26-3 12-3 11-12 3-12 2z" style="display:inline;fill:#2174ca"/><path id="path50" d="M302 744c-3-3-6-10-8-16l-3-10-12-3-12-3-9-20-8-19-1-17c0-20 11-56 21-72l8-12 12 18 16 19c6 2 5 21-3 43l-7 21 2 6 3 6h20c22 0 58 6 63 11l3 3-9 17-9 17-24 8c-28 10-37 11-43 3zm378-187c0-3 7-30 16-59l17-55c0-1 2-1 5 1l4 3v21c0 29-7 55-22 77-12 18-20 23-20 12zm-355-18c-3-3-5-9-5-14v-7l33-30c19-17 45-39 60-50 32-25 49-47 59-77l8-24-3-19-2-19 10-19 10-19v-40l-1-41 15-5c9-3 28-14 44-24l29-19h11c6 0 24-5 39-11 16-7 33-12 37-12h8l-8 10c-5 6-24 44-44 84-20 39-44 82-52 94l-16 23h-14c-7 0-17 2-22 4l-8 5-7 22-27 83c-10 34-22 66-26 71l-6 10-28 7-87 22-7-5zm353-254-6-10 3-69c2-38 5-70 6-72 3-2 10 26 27 107l6 26-3 12-3 11-12 3-12 2z" style="display:inline;fill:#536694"/><path id="path49" d="M315 738c0-5-3-14-7-19l-7-11-14 3-14 3-9-16c-6-9-11-23-13-31l-3-15 8-29c5-16 11-34 15-40l7-11 12 18 16 19c6 2 5 21-3 43l-7 21 2 6 3 6h20c22 0 58 6 63 11 1 1-1 10-6 19l-8 17-12 5c-7 3-19 6-28 7l-15 3zm6-206-3-7 14-14c7-8 17-16 20-18l7-4 28 6 44 9 15 3v-13l-20-15-20-15-13 3c-7 2-13 2-13 1l36-31 35-29 14-29 14-29-1-26-1-25 11-21 11-21-3-36-2-35 52-27c29-14 67-32 86-39l34-13 3 4 4 3-6 8-43 81-36 74-18 21-17 22h-14l-20 2-7 3-22 69c-11 38-25 79-30 92l-10 24-54 15c-29 8-57 15-63 15h-9zm359-246-7-11 2-58c1-32 3-63 5-68l4-10 4 19 16 67 10 47-6 8c-3 4-8 7-12 7-3 0-6 2-7 5l-2 4z" style="display:inline;fill:#4a548d"/><path id="path47" d="M313 717c-15-24-20-28-24-16-2 4-6 7-10 7h-6l-10-15-9-15v-19c0-19 11-62 20-79l4-8 12 18 16 19c6 2 5 21-3 43l-7 21 2 6 3 6h20c21 0 58 6 62 10 1 2-2 10-7 19l-10 17-15 5-19 5c-3 0-12-11-19-24zm17-181-10-2v-12l17-15 18-15 9 3 45 8 35 5-40 11-52 14c-6 3-16 4-22 3zm116-45c-5-3-16-12-25-21l-18-15 28-27 29-26 10-24 11-23v-31l1-30 9-19 8-19-1-32v-33l6-7c8-9 146-70 161-70 7 0 8 7 1 12-3 1-22 36-42 76-20 41-40 78-45 83l-19 22-10 13h-33l-4 5c-3 4-17 44-31 89l-28 83-8-6zm230-215-3-6 2-56c1-31 3-58 5-60l3-3 8 36 13 56c3 11 4 23 3 27l-3 6-12 3-12 2z" style="display:inline;fill:#344d91"/><path id="path46" d="M313 717c-15-24-20-28-24-16-2 4-6 7-10 7h-6l-10-15-9-15v-19c0-18 10-56 18-71l4-7 16 20 15 19-7 27c-3 14-6 29-5 33l1 7 36 1 36 2 8 4 9 5-10 16-9 16-15 5-19 5c-3 0-12-11-19-24zm169-385 1-37c0-2 13-18 29-36 15-17 28-33 28-35 0-5-17-3-27 4l-11 8-2-12c-2-6-3-17-2-24l2-14 30-16c31-16 125-56 132-56h4l-3 6c-1 4-25 26-53 50l-52 43v15l17 13c9 8 16 15 16 18 0 2-7 12-15 22-9 10-17 21-19 26l-3 8h-13c-7 0-18 1-24 3l-10 3-5 19-6 19-2-6-2-7-6 10-5 10zm197-58c-1-2-1-28 1-57l3-54 3 7c3 10 22 99 21 101l-14 4-12 3z" style="display:inline;fill:#273983"/><path id="path44" d="M320 716c-7-11-11-21-10-22 3-3 50 0 62 3l8 2-6 14-5 14-14 4c-7 3-16 5-19 5h-5zm181-508c-2-7-2-14 0-16 5-9 135-68 140-63 1 1-19 19-45 41l-47 39-20 6-23 6c-1 0-4-6-5-13z" style="display:inline;fill:#051253"/><path id="path76" d="m670 299-29 130 31 118 41-129z" style="fill:url(#linearGradient78);fill-opacity:1;stroke-width:4.6875"/></g></svg>